<svg width="14" height="15" viewBox="0 0 14 15" fill="none" xmlns="http://www.w3.org/2000/svg">
<path d="M11.3423 15C10.7894 15 10.3206 14.8068 9.93583 14.4204C9.55125 14.034 9.35896 13.5649 9.35896 13.0129C9.35896 12.9296 9.39583 12.7191 9.46958 12.3815L3.47125 8.82042C3.29167 9.02875 3.07139 9.19194 2.81042 9.31C2.54931 9.42805 2.26958 9.48708 1.97125 9.48708C1.42361 9.48708 0.958195 9.29215 0.575 8.90229C0.191667 8.51229 0 8.04486 0 7.5C0 6.95514 0.191667 6.48771 0.575 6.09771C0.958195 5.70785 1.42361 5.51292 1.97125 5.51292C2.26958 5.51292 2.54931 5.57194 2.81042 5.69C3.07139 5.80806 3.29167 5.97125 3.47125 6.17958L9.46958 2.63458C9.43111 2.52667 9.40306 2.41958 9.38542 2.31333C9.36778 2.20694 9.35896 2.09819 9.35896 1.98708C9.35896 1.43514 9.5525 0.965972 9.93958 0.579583C10.3268 0.193195 10.7969 0 11.35 0C11.9031 0 12.3719 0.193542 12.7565 0.580625C13.141 0.967847 13.3333 1.43799 13.3333 1.99104C13.3333 2.54396 13.1401 3.01278 12.7537 3.3975C12.3674 3.78208 11.8982 3.97438 11.3463 3.97438C11.0449 3.97438 10.7671 3.91264 10.5129 3.78917C10.2586 3.66583 10.0417 3.5 9.86208 3.29167L3.86375 6.8525C3.90222 6.96042 3.93028 7.06757 3.94792 7.17396C3.96556 7.28021 3.97437 7.38889 3.97437 7.5C3.97437 7.61111 3.96556 7.71979 3.94792 7.82604C3.93028 7.93243 3.90222 8.03958 3.86375 8.1475L9.86208 11.7083C10.0417 11.5 10.2586 11.3342 10.5129 11.2108C10.7671 11.0874 11.0449 11.0256 11.3463 11.0256C11.8982 11.0256 12.3674 11.2192 12.7537 11.6062C13.1401 11.9935 13.3333 12.4636 13.3333 13.0167C13.3333 13.5697 13.1398 14.0385 12.7527 14.4231C12.3655 14.8077 11.8953 15 11.3423 15ZM11.3463 14.1667C11.6731 14.1667 11.9471 14.0561 12.1683 13.835C12.3894 13.6138 12.5 13.3397 12.5 13.0129C12.5 12.686 12.3894 12.4119 12.1683 12.1906C11.9471 11.9695 11.6731 11.859 11.3463 11.859C11.0193 11.859 10.7452 11.9695 10.524 12.1906C10.3028 12.4119 10.1923 12.686 10.1923 13.0129C10.1923 13.3397 10.3028 13.6138 10.524 13.835C10.7452 14.0561 11.0193 14.1667 11.3463 14.1667ZM1.97125 8.65375C2.30264 8.65375 2.58042 8.54187 2.80458 8.31812C3.02889 8.09424 3.14104 7.82153 3.14104 7.5C3.14104 7.17847 3.02889 6.90576 2.80458 6.68187C2.58042 6.45812 2.30264 6.34625 1.97125 6.34625C1.64875 6.34625 1.37847 6.45812 1.16042 6.68187C0.942361 6.90576 0.833333 7.17847 0.833333 7.5C0.833333 7.82153 0.942361 8.09424 1.16042 8.31812C1.37847 8.54187 1.64875 8.65375 1.97125 8.65375ZM12.1642 2.80937C12.3881 2.58812 12.5 2.31403 12.5 1.98708C12.5 1.66028 12.3894 1.38625 12.1683 1.165C11.9471 0.943889 11.6731 0.833333 11.3463 0.833333C11.0193 0.833333 10.7452 0.943889 10.524 1.165C10.3028 1.38625 10.1923 1.66028 10.1923 1.98708C10.1923 2.31403 10.3042 2.58812 10.5281 2.80937C10.7519 3.03049 11.0246 3.14104 11.3463 3.14104C11.6678 3.14104 11.9404 3.03049 12.1642 2.80937Z" fill="#404040"/>
</svg>
