<svg width="15" height="10" viewBox="0 0 15 10" fill="none" xmlns="http://www.w3.org/2000/svg">
<path d="M9.45852 6.98981C9.99389 6.44263 10.2616 5.77821 10.2616 4.99654C10.2616 4.21487 9.99276 3.5516 9.45512 3.00673C8.91748 2.46186 8.26464 2.18942 7.4966 2.18942C6.72856 2.18942 6.07686 2.46301 5.54148 3.01019C5.00611 3.55737 4.73842 4.2218 4.73842 5.00346C4.73842 5.78513 5.00724 6.4484 5.54488 6.99327C6.08252 7.53814 6.73536 7.81058 7.5034 7.81058C8.27144 7.81058 8.92315 7.53699 9.45852 6.98981ZM6.05449 6.47115C5.65769 6.06731 5.45929 5.57692 5.45929 5C5.45929 4.42308 5.65769 3.93269 6.05449 3.52885C6.4513 3.125 6.93314 2.92308 7.5 2.92308C8.06686 2.92308 8.5487 3.125 8.94551 3.52885C9.34231 3.93269 9.54071 4.42308 9.54071 5C9.54071 5.57692 9.34231 6.06731 8.94551 6.47115C8.5487 6.875 8.06686 7.07692 7.5 7.07692C6.93314 7.07692 6.4513 6.875 6.05449 6.47115ZM3.02611 8.63981C1.67924 7.73301 0.670538 6.51974 0 5C0.670538 3.48026 1.67855 2.26699 3.02404 1.36019C4.36952 0.453397 5.86082 0 7.49792 0C9.13503 0 10.627 0.453397 11.9739 1.36019C13.3208 2.26699 14.3295 3.48026 15 5C14.3295 6.51974 13.3215 7.73301 11.976 8.63981C10.6305 9.5466 9.13918 10 7.50208 10C5.86497 10 4.37298 9.5466 3.02611 8.63981ZM11.4208 8.08654C12.6112 7.32372 13.5214 6.29487 14.1512 5C13.5214 3.70513 12.6112 2.67628 11.4208 1.91346C10.2304 1.15064 8.92346 0.769231 7.5 0.769231C6.07654 0.769231 4.7696 1.15064 3.57918 1.91346C2.38877 2.67628 1.47864 3.70513 0.848786 5C1.47864 6.29487 2.38877 7.32372 3.57918 8.08654C4.7696 8.84936 6.07654 9.23077 7.5 9.23077C8.92346 9.23077 10.2304 8.84936 11.4208 8.08654Z" fill="#404040"/>
</svg>
