<svg width="180" height="120" viewBox="0 0 180 120" fill="none" xmlns="http://www.w3.org/2000/svg">
<path d="M57.666 116.355C58.2075 116.249 58.7334 116.6 58.8408 117.142C58.948 117.683 58.5954 118.209 58.0537 118.316C55.4825 118.825 52.8495 119.207 50.1631 119.456C49.6134 119.507 49.1265 119.103 49.0752 118.554C49.0242 118.004 49.428 117.517 49.9775 117.466C52.5968 117.223 55.1628 116.85 57.666 116.355Z" fill="#F5B87B"/>
<path d="M21.7168 116.3C21.839 115.761 22.3747 115.424 22.9131 115.546C25.4897 116.13 28.0436 116.597 30.5684 116.952C31.1152 117.029 31.4965 117.535 31.4199 118.082C31.3429 118.629 30.8367 119.009 30.29 118.933C27.7095 118.57 25.1008 118.093 22.4707 117.496C21.9324 117.374 21.5947 116.838 21.7168 116.3Z" fill="#F5B87B"/>
<path d="M82.585 106.047C83.0403 105.734 83.664 105.85 83.9766 106.306C84.2886 106.761 84.1725 107.383 83.7178 107.695C81.5365 109.193 79.2463 110.564 76.8584 111.802C76.3681 112.056 75.7639 111.864 75.5098 111.374C75.2559 110.884 75.4482 110.28 75.9385 110.026C78.2542 108.826 80.4726 107.497 82.585 106.047Z" fill="#F5B87B"/>
<path d="M0.860352 107.809C2.04977 108.376 3.23804 108.916 4.42383 109.433C4.93022 109.653 5.16184 110.244 4.94141 110.75C4.72083 111.256 4.13215 111.488 3.62598 111.268C2.41889 110.742 1.2101 110.19 0 109.613L0.860352 107.809Z" fill="#F5B87B"/>
<path d="M100.685 86.208C100.951 85.7247 101.561 85.5488 102.044 85.8154C102.527 86.0822 102.703 86.6913 102.437 87.1748C101.14 89.5248 99.6911 91.7704 98.1025 93.9043C97.7729 94.3471 97.1471 94.4395 96.7041 94.1104C96.2612 93.7806 96.1685 93.1539 96.498 92.7109C98.033 90.6491 99.4318 88.4785 100.685 86.208Z" fill="#F5B87B"/>
<path d="M108.144 60.4561C108.232 59.911 108.745 59.5402 109.29 59.6279C109.835 59.7159 110.206 60.2293 110.118 60.7744C109.925 61.9699 109.758 63.1827 109.616 64.4121C109.463 65.7492 109.269 67.0694 109.038 68.3711C108.942 68.9148 108.423 69.2782 107.879 69.1816C107.335 69.0849 106.973 68.5651 107.069 68.0215C107.293 66.7604 107.481 65.4812 107.63 64.1846C107.775 62.9253 107.946 61.6819 108.144 60.4561Z" fill="#F5B87B"/>
<path d="M116.849 35.71C117.128 35.2337 117.741 35.0744 118.218 35.3535C118.694 35.6327 118.854 36.2444 118.575 36.7207C117.355 38.8032 116.243 40.9745 115.244 43.2314C115.02 43.7361 114.43 43.9646 113.925 43.7412C113.42 43.5177 113.193 42.9267 113.416 42.4219C114.445 40.0965 115.591 37.8579 116.849 35.71Z" fill="#F5B87B"/>
<path d="M134.375 16.1875C134.817 15.8572 135.444 15.9478 135.774 16.3896C136.105 16.8318 136.015 17.4593 135.573 17.79C133.608 19.2602 131.734 20.8254 129.961 22.4854C129.558 22.8626 128.925 22.8422 128.548 22.4395C128.17 22.0363 128.192 21.4028 128.595 21.0254C130.423 19.3143 132.352 17.7008 134.375 16.1875Z" fill="#F5B87B"/>
<path d="M157.774 4.35156C158.3 4.1839 158.863 4.47416 159.031 5C159.199 5.52611 158.908 6.08989 158.382 6.25781C156.017 7.01265 153.717 7.85536 151.487 8.78516C150.978 8.99739 150.392 8.75648 150.18 8.24707C149.967 7.73745 150.208 7.1521 150.718 6.93945C153.002 5.98685 155.356 5.12341 157.774 4.35156Z" fill="#F5B87B"/>
<path d="M180.005 1.99219C178.773 2.10298 177.552 2.23277 176.342 2.38184C175.794 2.44937 175.294 2.05982 175.227 1.51172C175.159 0.963762 175.549 0.464191 176.097 0.396484C177.329 0.244694 178.573 0.112743 179.826 0L180.005 1.99219Z" fill="#F5B87B"/>
</svg>
