<svg width="48" height="48" viewBox="0 0 48 48" fill="none" xmlns="http://www.w3.org/2000/svg">
<path d="M24 0.5C36.9787 0.5 47.5 11.0213 47.5 24C47.5 36.9787 36.9787 47.5 24 47.5C11.0213 47.5 0.5 36.9787 0.5 24C0.5 11.0213 11.0213 0.5 24 0.5Z" stroke="white"/>
<path d="M24 16C21.829 16 21.556 16.01 20.703 16.048C19.85 16.088 19.269 16.222 18.76 16.42C18.2258 16.6203 17.7421 16.9354 17.343 17.343C16.9354 17.7421 16.6203 18.2258 16.42 18.76C16.222 19.268 16.087 19.85 16.048 20.7C16.01 21.555 16 21.827 16 24.001C16 26.173 16.01 26.445 16.048 27.298C16.088 28.15 16.222 28.731 16.42 29.24C16.625 29.766 16.898 30.212 17.343 30.657C17.787 31.102 18.233 31.376 18.759 31.58C19.269 31.778 19.849 31.913 20.701 31.952C21.555 31.99 21.827 32 24 32C26.173 32 26.444 31.99 27.298 31.952C28.149 31.912 28.732 31.778 29.241 31.58C29.7748 31.3795 30.2581 31.0645 30.657 30.657C31.102 30.212 31.375 29.766 31.58 29.24C31.777 28.731 31.912 28.15 31.952 27.298C31.99 26.445 32 26.173 32 24C32 21.827 31.99 21.555 31.952 20.701C31.912 19.85 31.777 19.268 31.58 18.76C31.3797 18.2258 31.0646 17.7421 30.657 17.343C30.2579 16.9354 29.7742 16.6203 29.24 16.42C28.73 16.222 28.148 16.087 27.297 16.048C26.443 16.01 26.172 16 23.998 16H24ZM23.283 17.442H24.001C26.137 17.442 26.39 17.449 27.233 17.488C28.013 17.523 28.437 17.654 28.719 17.763C29.092 17.908 29.359 18.082 29.639 18.362C29.919 18.642 30.092 18.908 30.237 19.282C30.347 19.563 30.477 19.987 30.512 20.767C30.551 21.61 30.559 21.863 30.559 23.998C30.559 26.133 30.551 26.387 30.512 27.23C30.477 28.01 30.346 28.433 30.237 28.715C30.1078 29.0619 29.9032 29.3758 29.638 29.634C29.358 29.914 29.092 30.087 28.718 30.232C28.438 30.342 28.014 30.472 27.233 30.508C26.39 30.546 26.137 30.555 24.001 30.555C21.865 30.555 21.611 30.546 20.768 30.508C19.988 30.472 19.565 30.342 19.283 30.232C18.9358 30.1033 18.6216 29.899 18.363 29.634C18.0973 29.3756 17.8923 29.0614 17.763 28.714C17.654 28.433 17.523 28.009 17.488 27.229C17.45 26.386 17.442 26.133 17.442 23.996C17.442 21.859 17.45 21.608 17.488 20.765C17.524 19.985 17.654 19.561 17.764 19.279C17.909 18.906 18.083 18.639 18.363 18.359C18.643 18.079 18.909 17.906 19.283 17.761C19.565 17.651 19.988 17.521 20.768 17.485C21.506 17.451 21.792 17.441 23.283 17.44V17.442ZM28.271 18.77C28.1449 18.77 28.0201 18.7948 27.9036 18.8431C27.7872 18.8913 27.6813 18.962 27.5922 19.0512C27.503 19.1403 27.4323 19.2462 27.3841 19.3626C27.3358 19.4791 27.311 19.6039 27.311 19.73C27.311 19.8561 27.3358 19.9809 27.3841 20.0974C27.4323 20.2138 27.503 20.3197 27.5922 20.4088C27.6813 20.498 27.7872 20.5687 27.9036 20.6169C28.0201 20.6652 28.1449 20.69 28.271 20.69C28.5256 20.69 28.7698 20.5889 28.9498 20.4088C29.1299 20.2288 29.231 19.9846 29.231 19.73C29.231 19.4754 29.1299 19.2312 28.9498 19.0512C28.7698 18.8711 28.5256 18.77 28.271 18.77ZM24.001 19.892C23.4561 19.8835 22.9149 19.9835 22.409 20.1861C21.9031 20.3888 21.4425 20.6901 21.0542 21.0724C20.6658 21.4548 20.3574 21.9106 20.1468 22.4133C19.9363 22.916 19.8279 23.4555 19.8279 24.0005C19.8279 24.5455 19.9363 25.085 20.1468 25.5877C20.3574 26.0904 20.6658 26.5462 21.0542 26.9286C21.4425 27.3109 21.9031 27.6122 22.409 27.8149C22.9149 28.0175 23.4561 28.1175 24.001 28.109C25.0795 28.0922 26.1082 27.6519 26.865 26.8833C27.6217 26.1146 28.0459 25.0792 28.0459 24.0005C28.0459 22.9218 27.6217 21.8864 26.865 21.1177C26.1082 20.3491 25.0795 19.9088 24.001 19.892ZM24.001 21.333C24.3512 21.333 24.698 21.402 25.0216 21.536C25.3452 21.67 25.6392 21.8665 25.8869 22.1141C26.1345 22.3618 26.331 22.6558 26.465 22.9794C26.599 23.303 26.668 23.6498 26.668 24C26.668 24.3502 26.599 24.697 26.465 25.0206C26.331 25.3442 26.1345 25.6382 25.8869 25.8859C25.6392 26.1335 25.3452 26.33 25.0216 26.464C24.698 26.598 24.3512 26.667 24.001 26.667C23.2937 26.667 22.6153 26.386 22.1151 25.8859C21.615 25.3857 21.334 24.7073 21.334 24C21.334 23.2927 21.615 22.6143 22.1151 22.1141C22.6153 21.614 23.2937 21.333 24.001 21.333Z" fill="white"/>
</svg>
