<svg width="48" height="48" viewBox="0 0 48 48" fill="none" xmlns="http://www.w3.org/2000/svg">
<path d="M24 0.5C36.9787 0.5 47.5 11.0213 47.5 24C47.5 36.9787 36.9787 47.5 24 47.5C11.0213 47.5 0.5 36.9787 0.5 24C0.5 11.0213 11.0213 0.5 24 0.5Z" stroke="white"/>
<path d="M24 16C28.9624 16 33 19.2472 33 23.2393C33 24.8373 32.3756 26.2758 31.0706 27.6931C29.1829 29.8475 24.9607 32.4713 24 32.8728C23.0662 33.2631 23.1742 32.6531 23.217 32.4122L23.2204 32.3922L23.3486 31.6283C23.379 31.4008 23.4105 31.0473 23.3194 30.8221C23.2181 30.5734 22.8199 30.4441 22.5274 30.3816C18.2018 29.8162 15 26.8177 15 23.2393C15 19.2472 19.0388 16 24 16ZM20.6497 24.5708H18.9341V21.4841C18.9341 21.4382 18.9158 21.3941 18.8831 21.3615C18.8505 21.3289 18.8061 21.3105 18.7597 21.3102H18.1275C18.1045 21.3102 18.0816 21.3147 18.0603 21.3234C18.039 21.3322 18.0197 21.345 18.0034 21.3611C17.9871 21.3773 17.9742 21.3964 17.9654 21.4176C17.9565 21.4387 17.952 21.4613 17.952 21.4841V25.3714C17.952 25.4171 17.9711 25.4606 18.0015 25.4907V25.4918L18.0038 25.4941L18.006 25.4963C18.022 25.5119 18.041 25.5242 18.0619 25.5324C18.0827 25.5407 18.105 25.5447 18.1275 25.5443H20.6497C20.7465 25.5443 20.8241 25.4662 20.8241 25.3703V24.7458C20.8243 24.723 20.8199 24.7003 20.8112 24.6792C20.8025 24.658 20.7897 24.6388 20.7735 24.6225C20.7573 24.6062 20.7381 24.5933 20.7168 24.5844C20.6956 24.5755 20.6728 24.5709 20.6497 24.5708ZM21.5396 21.3102C21.4931 21.3102 21.4484 21.3285 21.4155 21.3611C21.3826 21.3937 21.3641 21.438 21.3641 21.4841V25.3714C21.3641 25.4673 21.4429 25.5443 21.5396 25.5443H22.1719C22.2686 25.5443 22.3463 25.4662 22.3463 25.3714V21.4841C22.3463 21.4382 22.3279 21.3941 22.2952 21.3615C22.2626 21.3289 22.2182 21.3105 22.1719 21.3102H21.5396ZM25.8855 21.3102C25.839 21.3102 25.7943 21.3285 25.7614 21.3611C25.7285 21.3937 25.71 21.438 25.71 21.4841V23.7924L23.9134 21.3882L23.8988 21.3715L23.8875 21.3592L23.8841 21.3559L23.8717 21.3459L23.865 21.3414L23.8616 21.3392L23.856 21.3358L23.847 21.3302H23.8448L23.8414 21.328L23.8301 21.3235L23.8256 21.3213L23.8144 21.318H23.8121L23.8088 21.3169L23.7986 21.3146H23.7919L23.7885 21.3135H23.784L23.7818 21.3124H23.136C23.0896 21.3124 23.0452 21.3306 23.0123 21.363C22.9794 21.3953 22.9608 21.4393 22.9605 21.4852V25.3725C22.9605 25.4684 23.0392 25.5454 23.136 25.5454H23.766C23.8639 25.5454 23.9426 25.4673 23.9426 25.3725V23.0642L25.7426 25.4729C25.7552 25.4889 25.77 25.5032 25.7865 25.5153L25.7876 25.5164L25.7989 25.5231L25.8034 25.5253L25.8124 25.5298L25.8202 25.5331L25.8259 25.5353L25.8371 25.5387H25.8405C25.8552 25.5424 25.8703 25.5447 25.8855 25.5454H26.5155C26.6134 25.5454 26.6921 25.4673 26.6921 25.3725V21.4841C26.6921 21.438 26.6736 21.3937 26.6407 21.3611C26.6078 21.3285 26.5632 21.3102 26.5166 21.3102H25.8855ZM30.1774 22.1097V21.4852C30.1775 21.4624 30.1731 21.4397 30.1644 21.4186C30.1558 21.3974 30.143 21.3782 30.1268 21.3619C30.1106 21.3456 30.0913 21.3327 30.0701 21.3238C30.0488 21.315 30.026 21.3103 30.003 21.3102H27.4808C27.4355 21.3108 27.3921 21.3283 27.3593 21.3592H27.3581L27.357 21.3615L27.3548 21.3648C27.3238 21.3971 27.3062 21.4396 27.3053 21.4841V25.3714C27.3053 25.4171 27.3244 25.4606 27.3548 25.4907L27.357 25.4941L27.3593 25.4963C27.3923 25.5268 27.4356 25.5439 27.4808 25.5443H30.003C30.0998 25.5443 30.1774 25.4662 30.1774 25.3703V24.7458C30.1775 24.723 30.1731 24.7003 30.1644 24.6792C30.1558 24.658 30.143 24.6388 30.1268 24.6225C30.1106 24.6062 30.0913 24.5933 30.0701 24.5844C30.0488 24.5755 30.026 24.5709 30.003 24.5708H28.2863V23.914H30.0019C30.0986 23.914 30.1762 23.8359 30.1762 23.74V23.1155C30.1764 23.0927 30.172 23.07 30.1633 23.0489C30.1546 23.0277 30.1418 23.0085 30.1256 22.9922C30.1095 22.9759 30.0902 22.963 30.069 22.9541C30.0477 22.9453 30.0249 22.9406 30.0019 22.9405H28.2863V22.2837H30.0019C30.0986 22.2837 30.1762 22.2056 30.1762 22.1097H30.1774Z" fill="white"/>
</svg>
