<svg width="48" height="48" viewBox="0 0 48 48" fill="none" xmlns="http://www.w3.org/2000/svg">
<path d="M24 0.5C36.9787 0.5 47.5 11.0213 47.5 24C47.5 36.9787 36.9787 47.5 24 47.5C11.0213 47.5 0.5 36.9787 0.5 24C0.5 11.0213 11.0213 0.5 24 0.5Z" stroke="white"/>
<path d="M16 17.146C16 16.513 16.526 16 17.175 16H30.825C31.474 16 32 16.513 32 17.146V30.854C32 31.487 31.474 32 30.825 32H17.175C16.526 32 16 31.487 16 30.854V17.146ZM20.943 29.394V22.169H18.542V29.394H20.943ZM19.743 21.182C20.58 21.182 21.101 20.628 21.101 19.934C21.086 19.225 20.581 18.686 19.759 18.686C18.937 18.686 18.4 19.226 18.4 19.934C18.4 20.628 18.921 21.182 19.727 21.182H19.743ZM24.651 29.394V25.359C24.651 25.143 24.667 24.927 24.731 24.773C24.904 24.342 25.299 23.895 25.963 23.895C26.832 23.895 27.179 24.557 27.179 25.529V29.394H29.58V25.25C29.58 23.03 28.396 21.998 26.816 21.998C25.542 21.998 24.971 22.698 24.651 23.191V23.216H24.635L24.651 23.191V22.169H22.251C22.281 22.847 22.251 29.394 22.251 29.394H24.651Z" fill="white"/>
</svg>
