<svg width="21" height="24" viewBox="0 0 21 24" fill="none" xmlns="http://www.w3.org/2000/svg">
<path d="M4.8279 0.765446L5.55686 0L15.3098 9.78281L8.80373 16.3698L2.29792 9.76279L8.07502 4.02234L4.8279 0.765446ZM8.82394 4.77384L3.77002 9.80308H13.8377L8.82394 4.77384ZM16.286 16.2331C15.9826 15.9286 15.8308 15.5542 15.8308 15.1099C15.8308 14.7953 15.9133 14.4848 16.0781 14.1783C16.243 13.8718 16.4163 13.5814 16.5981 13.3072C16.7287 13.1236 16.8612 12.9447 16.9958 12.7706C17.1304 12.5963 17.2671 12.4173 17.4059 12.2337C17.5445 12.4173 17.681 12.5963 17.8156 12.7706C17.9502 12.9447 18.0828 13.1236 18.2136 13.3072C18.3952 13.5814 18.5685 13.8718 18.7333 14.1783C18.8983 14.4848 18.9809 14.7953 18.9809 15.1099C18.9809 15.5542 18.829 15.9286 18.5254 16.2331C18.2218 16.5375 17.8486 16.6897 17.4059 16.6897C16.9629 16.6897 16.5896 16.5375 16.286 16.2331ZM0 23.3333V21.2268H21V23.3333H0Z" fill="#404040"/>
</svg>
